<mxfile host="app.diagrams.net" modified="2024-01-17T19:51:21.058Z" agent="Mozilla/5.0 (Windows NT 10.0; Win64; x64) AppleWebKit/537.36 (KHTML, like Gecko) Chrome/120.0.0.0 Safari/537.36" etag="CXMa_3S2OMtVMVqxrUiQ" version="22.1.21" type="github">
  <diagram id="C5RBs43oDa-KdzZeNtuy" name="Page-1">
    <mxGraphModel dx="1134" dy="1017" grid="1" gridSize="10" guides="1" tooltips="1" connect="1" arrows="1" fold="1" page="1" pageScale="1" pageWidth="827" pageHeight="1169" math="0" shadow="0">
      <root>
        <mxCell id="WIyWlLk6GJQsqaUBKTNV-0" />
        <mxCell id="WIyWlLk6GJQsqaUBKTNV-1" parent="WIyWlLk6GJQsqaUBKTNV-0" />
        <mxCell id="WPw3JT98hD85s2Mjc7j6-2" value="" style="edgeStyle=orthogonalEdgeStyle;rounded=0;orthogonalLoop=1;jettySize=auto;html=1;" edge="1" parent="WIyWlLk6GJQsqaUBKTNV-1" source="WPw3JT98hD85s2Mjc7j6-0" target="WPw3JT98hD85s2Mjc7j6-1">
          <mxGeometry relative="1" as="geometry" />
        </mxCell>
        <mxCell id="WPw3JT98hD85s2Mjc7j6-0" value="&lt;font style=&quot;font-size: 22px;&quot;&gt;start&lt;/font&gt;" style="ellipse;whiteSpace=wrap;html=1;" vertex="1" parent="WIyWlLk6GJQsqaUBKTNV-1">
          <mxGeometry x="340" y="40" width="120" height="50" as="geometry" />
        </mxCell>
        <mxCell id="WPw3JT98hD85s2Mjc7j6-10" value="" style="edgeStyle=orthogonalEdgeStyle;rounded=0;orthogonalLoop=1;jettySize=auto;html=1;" edge="1" parent="WIyWlLk6GJQsqaUBKTNV-1" source="WPw3JT98hD85s2Mjc7j6-1" target="WPw3JT98hD85s2Mjc7j6-3">
          <mxGeometry relative="1" as="geometry" />
        </mxCell>
        <mxCell id="WPw3JT98hD85s2Mjc7j6-1" value="&lt;font style=&quot;font-size: 25px;&quot;&gt;sd,ave,n,a,b,i = 0;&lt;br&gt;x= [];&lt;/font&gt;" style="rounded=0;whiteSpace=wrap;html=1;" vertex="1" parent="WIyWlLk6GJQsqaUBKTNV-1">
          <mxGeometry x="282.5" y="130" width="235" height="60" as="geometry" />
        </mxCell>
        <mxCell id="WPw3JT98hD85s2Mjc7j6-11" value="" style="edgeStyle=orthogonalEdgeStyle;rounded=0;orthogonalLoop=1;jettySize=auto;html=1;" edge="1" parent="WIyWlLk6GJQsqaUBKTNV-1" source="WPw3JT98hD85s2Mjc7j6-3" target="WPw3JT98hD85s2Mjc7j6-4">
          <mxGeometry relative="1" as="geometry" />
        </mxCell>
        <mxCell id="WPw3JT98hD85s2Mjc7j6-3" value="&lt;font style=&quot;font-size: 25px;&quot;&gt;n&lt;/font&gt;" style="shape=parallelogram;perimeter=parallelogramPerimeter;whiteSpace=wrap;html=1;fixedSize=1;" vertex="1" parent="WIyWlLk6GJQsqaUBKTNV-1">
          <mxGeometry x="340" y="240" width="120" height="60" as="geometry" />
        </mxCell>
        <mxCell id="WPw3JT98hD85s2Mjc7j6-12" value="&lt;font color=&quot;#33ff33&quot; style=&quot;font-size: 20px;&quot;&gt;Yes&lt;/font&gt;" style="edgeStyle=orthogonalEdgeStyle;rounded=0;orthogonalLoop=1;jettySize=auto;html=1;" edge="1" parent="WIyWlLk6GJQsqaUBKTNV-1" source="WPw3JT98hD85s2Mjc7j6-4" target="WPw3JT98hD85s2Mjc7j6-5">
          <mxGeometry relative="1" as="geometry" />
        </mxCell>
        <mxCell id="WPw3JT98hD85s2Mjc7j6-18" style="edgeStyle=orthogonalEdgeStyle;rounded=0;orthogonalLoop=1;jettySize=auto;html=1;entryX=0.5;entryY=0;entryDx=0;entryDy=0;exitX=0;exitY=0.5;exitDx=0;exitDy=0;" edge="1" parent="WIyWlLk6GJQsqaUBKTNV-1" source="WPw3JT98hD85s2Mjc7j6-4" target="WPw3JT98hD85s2Mjc7j6-9">
          <mxGeometry relative="1" as="geometry">
            <mxPoint x="189.99999999999983" y="377.9400000000001" as="sourcePoint" />
            <mxPoint x="235.82" y="742.07" as="targetPoint" />
            <Array as="points">
              <mxPoint x="190" y="405" />
              <mxPoint x="190" y="760" />
            </Array>
          </mxGeometry>
        </mxCell>
        <mxCell id="WPw3JT98hD85s2Mjc7j6-19" value="&lt;font color=&quot;#ff9999&quot; style=&quot;font-size: 17px;&quot;&gt;NO&lt;/font&gt;" style="edgeLabel;html=1;align=center;verticalAlign=middle;resizable=0;points=[];" vertex="1" connectable="0" parent="WPw3JT98hD85s2Mjc7j6-18">
          <mxGeometry x="-0.1708" y="6" relative="1" as="geometry">
            <mxPoint y="-1" as="offset" />
          </mxGeometry>
        </mxCell>
        <mxCell id="WPw3JT98hD85s2Mjc7j6-4" value="&lt;font style=&quot;font-size: 25px;&quot;&gt;i &amp;lt; n&lt;/font&gt;" style="rhombus;whiteSpace=wrap;html=1;" vertex="1" parent="WIyWlLk6GJQsqaUBKTNV-1">
          <mxGeometry x="340" y="350" width="120" height="110" as="geometry" />
        </mxCell>
        <mxCell id="WPw3JT98hD85s2Mjc7j6-13" value="" style="edgeStyle=orthogonalEdgeStyle;rounded=0;orthogonalLoop=1;jettySize=auto;html=1;entryX=0.5;entryY=0;entryDx=0;entryDy=0;" edge="1" parent="WIyWlLk6GJQsqaUBKTNV-1" source="WPw3JT98hD85s2Mjc7j6-5" target="WPw3JT98hD85s2Mjc7j6-7">
          <mxGeometry relative="1" as="geometry">
            <mxPoint x="400" y="630" as="targetPoint" />
          </mxGeometry>
        </mxCell>
        <mxCell id="WPw3JT98hD85s2Mjc7j6-5" value="&lt;font style=&quot;font-size: 25px;&quot;&gt;x[i]&lt;/font&gt;" style="shape=parallelogram;perimeter=parallelogramPerimeter;whiteSpace=wrap;html=1;fixedSize=1;" vertex="1" parent="WIyWlLk6GJQsqaUBKTNV-1">
          <mxGeometry x="340" y="530" width="120" height="60" as="geometry" />
        </mxCell>
        <mxCell id="WPw3JT98hD85s2Mjc7j6-14" value="" style="edgeStyle=orthogonalEdgeStyle;rounded=0;orthogonalLoop=1;jettySize=auto;html=1;entryX=0.5;entryY=1;entryDx=0;entryDy=0;" edge="1" parent="WIyWlLk6GJQsqaUBKTNV-1" source="WPw3JT98hD85s2Mjc7j6-7" target="WPw3JT98hD85s2Mjc7j6-8">
          <mxGeometry relative="1" as="geometry" />
        </mxCell>
        <mxCell id="WPw3JT98hD85s2Mjc7j6-7" value="&lt;span style=&quot;font-size: 25px;&quot;&gt;ave += x[i]&lt;/span&gt;" style="rounded=0;whiteSpace=wrap;html=1;" vertex="1" parent="WIyWlLk6GJQsqaUBKTNV-1">
          <mxGeometry x="282.5" y="650" width="235" height="60" as="geometry" />
        </mxCell>
        <mxCell id="WPw3JT98hD85s2Mjc7j6-15" style="edgeStyle=orthogonalEdgeStyle;rounded=0;orthogonalLoop=1;jettySize=auto;html=1;" edge="1" parent="WIyWlLk6GJQsqaUBKTNV-1" source="WPw3JT98hD85s2Mjc7j6-8">
          <mxGeometry relative="1" as="geometry">
            <mxPoint x="410" y="330" as="targetPoint" />
            <Array as="points">
              <mxPoint x="678" y="330" />
            </Array>
          </mxGeometry>
        </mxCell>
        <mxCell id="WPw3JT98hD85s2Mjc7j6-8" value="&lt;span style=&quot;font-size: 25px;&quot;&gt;i++&lt;/span&gt;" style="rounded=0;whiteSpace=wrap;html=1;" vertex="1" parent="WIyWlLk6GJQsqaUBKTNV-1">
          <mxGeometry x="560" y="480" width="235" height="60" as="geometry" />
        </mxCell>
        <mxCell id="WPw3JT98hD85s2Mjc7j6-31" style="edgeStyle=orthogonalEdgeStyle;rounded=0;orthogonalLoop=1;jettySize=auto;html=1;entryX=0.5;entryY=0;entryDx=0;entryDy=0;exitX=0.5;exitY=1;exitDx=0;exitDy=0;" edge="1" parent="WIyWlLk6GJQsqaUBKTNV-1" source="WPw3JT98hD85s2Mjc7j6-9" target="WPw3JT98hD85s2Mjc7j6-23">
          <mxGeometry relative="1" as="geometry">
            <mxPoint x="367.57142857142844" y="860" as="sourcePoint" />
          </mxGeometry>
        </mxCell>
        <mxCell id="WPw3JT98hD85s2Mjc7j6-9" value="&lt;span style=&quot;font-size: 25px;&quot;&gt;ave = ave / n&lt;/span&gt;" style="rounded=0;whiteSpace=wrap;html=1;" vertex="1" parent="WIyWlLk6GJQsqaUBKTNV-1">
          <mxGeometry x="282.5" y="790" width="235" height="60" as="geometry" />
        </mxCell>
        <mxCell id="WPw3JT98hD85s2Mjc7j6-20" value="&lt;font color=&quot;#33ff33&quot; style=&quot;font-size: 20px;&quot;&gt;Yes&lt;/font&gt;" style="edgeStyle=orthogonalEdgeStyle;rounded=0;orthogonalLoop=1;jettySize=auto;html=1;entryX=0.5;entryY=0;entryDx=0;entryDy=0;" edge="1" source="WPw3JT98hD85s2Mjc7j6-23" target="WPw3JT98hD85s2Mjc7j6-27" parent="WIyWlLk6GJQsqaUBKTNV-1">
          <mxGeometry relative="1" as="geometry">
            <mxPoint x="399.0000000000002" y="1180" as="targetPoint" />
          </mxGeometry>
        </mxCell>
        <mxCell id="WPw3JT98hD85s2Mjc7j6-21" style="edgeStyle=orthogonalEdgeStyle;rounded=0;orthogonalLoop=1;jettySize=auto;html=1;entryX=0.5;entryY=0;entryDx=0;entryDy=0;exitX=0;exitY=0.5;exitDx=0;exitDy=0;" edge="1" source="WPw3JT98hD85s2Mjc7j6-23" target="WPw3JT98hD85s2Mjc7j6-30" parent="WIyWlLk6GJQsqaUBKTNV-1">
          <mxGeometry relative="1" as="geometry">
            <mxPoint x="188.99999999999983" y="1027.94" as="sourcePoint" />
            <mxPoint x="234.82" y="1392.0700000000002" as="targetPoint" />
            <Array as="points">
              <mxPoint x="189" y="1055" />
              <mxPoint x="189" y="1410" />
            </Array>
          </mxGeometry>
        </mxCell>
        <mxCell id="WPw3JT98hD85s2Mjc7j6-22" value="&lt;font color=&quot;#ff9999&quot; style=&quot;font-size: 17px;&quot;&gt;NO&lt;/font&gt;" style="edgeLabel;html=1;align=center;verticalAlign=middle;resizable=0;points=[];" vertex="1" connectable="0" parent="WPw3JT98hD85s2Mjc7j6-21">
          <mxGeometry x="-0.1708" y="6" relative="1" as="geometry">
            <mxPoint y="-1" as="offset" />
          </mxGeometry>
        </mxCell>
        <mxCell id="WPw3JT98hD85s2Mjc7j6-23" value="&lt;font style=&quot;font-size: 25px;&quot;&gt;i &amp;lt; n&lt;/font&gt;" style="rhombus;whiteSpace=wrap;html=1;" vertex="1" parent="WIyWlLk6GJQsqaUBKTNV-1">
          <mxGeometry x="339" y="1000" width="120" height="110" as="geometry" />
        </mxCell>
        <mxCell id="WPw3JT98hD85s2Mjc7j6-26" value="" style="edgeStyle=orthogonalEdgeStyle;rounded=0;orthogonalLoop=1;jettySize=auto;html=1;entryX=0.5;entryY=1;entryDx=0;entryDy=0;" edge="1" source="WPw3JT98hD85s2Mjc7j6-27" target="WPw3JT98hD85s2Mjc7j6-29" parent="WIyWlLk6GJQsqaUBKTNV-1">
          <mxGeometry relative="1" as="geometry" />
        </mxCell>
        <mxCell id="WPw3JT98hD85s2Mjc7j6-27" value="&lt;span style=&quot;font-size: 25px;&quot;&gt;a += sqr(x[i] - ave)&lt;/span&gt;" style="rounded=0;whiteSpace=wrap;html=1;" vertex="1" parent="WIyWlLk6GJQsqaUBKTNV-1">
          <mxGeometry x="281" y="1230" width="235" height="60" as="geometry" />
        </mxCell>
        <mxCell id="WPw3JT98hD85s2Mjc7j6-28" style="edgeStyle=orthogonalEdgeStyle;rounded=0;orthogonalLoop=1;jettySize=auto;html=1;" edge="1" source="WPw3JT98hD85s2Mjc7j6-29" parent="WIyWlLk6GJQsqaUBKTNV-1">
          <mxGeometry relative="1" as="geometry">
            <mxPoint x="409" y="980" as="targetPoint" />
            <Array as="points">
              <mxPoint x="677" y="980" />
            </Array>
          </mxGeometry>
        </mxCell>
        <mxCell id="WPw3JT98hD85s2Mjc7j6-29" value="&lt;span style=&quot;font-size: 25px;&quot;&gt;i++&lt;/span&gt;" style="rounded=0;whiteSpace=wrap;html=1;" vertex="1" parent="WIyWlLk6GJQsqaUBKTNV-1">
          <mxGeometry x="561" y="1120" width="235" height="60" as="geometry" />
        </mxCell>
        <mxCell id="WPw3JT98hD85s2Mjc7j6-35" value="" style="edgeStyle=orthogonalEdgeStyle;rounded=0;orthogonalLoop=1;jettySize=auto;html=1;" edge="1" parent="WIyWlLk6GJQsqaUBKTNV-1" source="WPw3JT98hD85s2Mjc7j6-30" target="WPw3JT98hD85s2Mjc7j6-32">
          <mxGeometry relative="1" as="geometry" />
        </mxCell>
        <mxCell id="WPw3JT98hD85s2Mjc7j6-30" value="&lt;span style=&quot;font-size: 25px;&quot;&gt;b = a /n&lt;/span&gt;" style="rounded=0;whiteSpace=wrap;html=1;" vertex="1" parent="WIyWlLk6GJQsqaUBKTNV-1">
          <mxGeometry x="281.5" y="1370" width="235" height="60" as="geometry" />
        </mxCell>
        <mxCell id="WPw3JT98hD85s2Mjc7j6-36" value="" style="edgeStyle=orthogonalEdgeStyle;rounded=0;orthogonalLoop=1;jettySize=auto;html=1;" edge="1" parent="WIyWlLk6GJQsqaUBKTNV-1" source="WPw3JT98hD85s2Mjc7j6-32" target="WPw3JT98hD85s2Mjc7j6-34">
          <mxGeometry relative="1" as="geometry" />
        </mxCell>
        <mxCell id="WPw3JT98hD85s2Mjc7j6-32" value="&lt;span style=&quot;font-size: 25px;&quot;&gt;sd sqrt(b)&lt;/span&gt;" style="rounded=0;whiteSpace=wrap;html=1;" vertex="1" parent="WIyWlLk6GJQsqaUBKTNV-1">
          <mxGeometry x="282.5" y="1490" width="235" height="60" as="geometry" />
        </mxCell>
        <mxCell id="WPw3JT98hD85s2Mjc7j6-38" value="" style="edgeStyle=orthogonalEdgeStyle;rounded=0;orthogonalLoop=1;jettySize=auto;html=1;" edge="1" parent="WIyWlLk6GJQsqaUBKTNV-1" source="WPw3JT98hD85s2Mjc7j6-34" target="WPw3JT98hD85s2Mjc7j6-37">
          <mxGeometry relative="1" as="geometry" />
        </mxCell>
        <mxCell id="WPw3JT98hD85s2Mjc7j6-34" value="&lt;font style=&quot;font-size: 25px;&quot;&gt;sd&lt;/font&gt;" style="shape=parallelogram;perimeter=parallelogramPerimeter;whiteSpace=wrap;html=1;fixedSize=1;" vertex="1" parent="WIyWlLk6GJQsqaUBKTNV-1">
          <mxGeometry x="340" y="1630" width="120" height="60" as="geometry" />
        </mxCell>
        <mxCell id="WPw3JT98hD85s2Mjc7j6-37" value="&lt;span style=&quot;font-size: 22px;&quot;&gt;end&lt;/span&gt;" style="ellipse;whiteSpace=wrap;html=1;" vertex="1" parent="WIyWlLk6GJQsqaUBKTNV-1">
          <mxGeometry x="340" y="1729" width="120" height="50" as="geometry" />
        </mxCell>
      </root>
    </mxGraphModel>
  </diagram>
</mxfile>
